<svg version="1.0" xmlns="http://www.w3.org/2000/svg" width="305.333" height="285.333" viewBox="0 0 229 214"><path d="M74 .6c0 .3 1.6 2.4 3.5 4.7 5.2 6 4.2 7.2-1.4 1.6C73.5 4.2 70.5 2 69.6 2c-2.7 0-1.8 1.8 2.7 4.8 2.3 1.6 5 3.9 6 4.9 1.7 1.9 1.6 2.1-2.5 4.1-2.4 1.1-7.9 3-12.3 4.2-9.1 2.5-10.5 3.3-10.5 6.6 0 2.4 1.1 2.9 5.4 2.4 1.5-.1 1.7.2 1.1 1.7-2.3 5.7-4.5 12.5-4.5 14.1 0 1.5-.9 2.1-3.7 2.5-2.1.4-5.4 1-7.4 1.5-2.8.7-5.3.3-12.5-1.9-10.2-3.2-15.2-3.5-19.4-1.4-2.6 1.4-3 1.4-3 .1 0-2.1-3.7-3.9-6.6-3.2-2.8.7-3.1 3.1-1.1 9.7.8 2.5 1.2 7.1.9 10.9-.2 3.6.3 11.4 1.2 17.3 2.5 16.9 1.6 33.5-2 37.8-.8.8-1.4 2.1-1.4 2.7 0 1.5 2.7 1.6 3.6.1.5-.8 1-.6 1.6.5.5.9 1.6 1.6 2.4 1.6.8 0 1.9 1.1 2.4 2.5.7 1.9 1.9 2.6 4.9 3.1 3.7.6 3.9.9 4.9 5.3.5 2.5 1.5 5.9 2 7.6.6 1.6 1.6 5 2.2 7.3 1 4 1.6 4.6 6.5 6.8l5.4 2.3-3.4 7.3c-4.1 8.7-6.4 20.4-4.8 24.1 1.3 2.9 7.5 5.9 24.9 12.2 15.6 5.7 30.1 9.6 35.6 9.7 3.5 0 4.7-.5 7.4-3.4 3.6-4 8.3-15.6 12.1-29.6 1.4-5.4 2.6-9.8 2.7-9.9.3-.3 33.1-3.3 36.1-3.3 2.2 0 2.5.5 2.5 3.3 0 1.8.7 5.6 1.5 8.4 1.7 5.8 3 6.6 13.7 8.3 4.2.7 8 1.5 8.6 1.9.6.3 1.8 5.8 2.7 12.1 1 6.3 1.9 11.8 2.1 12.2 1.4 2.2 17.3 3.8 20 2 .7-.4 1.7-4.1 2.4-8.3.7-4.2 1.5-8.2 1.9-8.8.5-.7 2.3-.5 5.9.9 2.9 1.1 6.2 2 7.5 2 1.2-.1-1.3-1.2-5.6-2.7-6.7-2.2-7.8-2.9-7.5-4.7.2-1.2.8-2.1 1.3-2 8.8.5 15.5 1.9 15.8 3.3.3.9.5.2.6-1.6 0-1.8-1.5-7.6-3.5-13-5.1-14-4.9-13.3-2.5-12.6 2.4.6 9.9 15 12.5 24.1 1.4 5 1.4 5.4-.4 7.2-1.1 1.1-3.4 2-5.2 2.1-1.8 0-2.7.3-2 .6 2.5 1 8.2-.8 9.3-2.9 1.7-3.2-.4-11-5.7-21.3-2.4-4.8-4.4-9.1-4.4-9.4 0-.4 1.2-.8 2.8-.9 6-.5 7-8.1 1.5-11.8-3.8-2.6-15.8-6-26.5-7.6-4.3-.7-7.8-1.5-7.8-1.9 0-.3.7-2.5 1.5-4.8.8-2.2 1.9-6.9 2.5-10.4 1.7-10 1.9-10.5 4.1-11.2 2.8-.9 4.9-6.1 3.9-9.7-.7-2.3-.6-2.8.9-2.8 1 0 3-.9 4.5-2.1 3.5-2.7 3.6-8.5.2-12.6-1.3-1.5-2.6-3.8-3-5.1-1.3-4-4.9-5.6-11.7-4.9-7 .8-10.7 2.5-14.3 6.7-5.1 6.1-8 14.8-9.1 27.5-.6 7.4-1.5 8.7-5.5 8.3-2.3-.3-2.5-.7-2.6-5.2-.1-6.6.6-9.6 2.2-9.6.7 0 2.1-1.1 3-2.6 1.4-2 1.5-3.1.6-6-.9-3-.8-3.6.6-4 4.5-1.4 6.2-2.5 6.3-3.9.1-.8.2-2.1.3-2.8.4-2.7-1.9-5.6-7-8.7-4.9-2.9-6-3.2-10.8-2.7-6.6.7-11.3 3-13.3 6.5-.9 1.5-3.9 3.8-6.7 5.2-3.9 1.9-5.6 3.5-7.3 6.8-2.1 4.1-2.2 4.2-3.3 2.2-.6-1.2-2.8-3.9-4.7-6.1l-3.5-3.9h3.3c10.2 0 16.1-4.6 21.4-16.5 3.6-8 3.8-8.9 2.6-11.8-2.4-6-2.5-7.7-.2-9.8 1.1-1.1 2.1-2.7 2.1-3.5 0-1.2.7-1.4 3.3-.9 3.1.7 3.2.7 1.5-1.2-2.5-2.7-2.2-4.3.7-4.3 3.6 0 3.1-1.8-.7-2.2-3.7-.3-4.8-2.3-1.8-3.1 1.1-.3 2-1 2-1.6 0-1.4-1.6-1.4-4.1 0-1.6.8-2.6.7-4.5-.6l-2.5-1.6 2.6-3c2.8-3.4 3.2-7.4 1-10.6-1.7-2.5-9.3-5.3-14.4-5.3-2.9-.1-4-.7-5.6-3.3-2.7-4.3-8.1-6-16.2-5.3C98.9 4 93.9 6 89.4 10c-4.5 3.9-5.8 3.8-7.2-.9C80.8 4.6 77.4 0 75.4 0c-.8 0-1.4.3-1.4.6zM114.9 6c.9 0-1 1.1-4.2 2.4-3.2 1.3-6.5 3-7.4 3.7-1.5 1.3-14.5 3-13.8 1.9.2-.4 2.6-1.7 5.2-3.1 2.6-1.3 5.3-2.9 5.8-3.6 1.2-1.4 5.9-2.2 9.9-1.7 1.6.2 3.6.4 4.5.4zm22.9 10c1.3.7.6 1-2.8 1-2.5 0-6.5.9-8.9 2-2.4 1.1-4.5 2-4.7 2-.2 0 .4-1.6 1.4-3.6l1.7-3.6 5.8.6c3.2.3 6.6 1 7.5 1.6zm-50.4 4.2c.4 1.7.2 2.8-.4 2.8-.5 0-1-1.4-1-3.2 0-3.6.4-3.5 1.4.4zm24.8 2c2 1.6 2.4 3.5 1.5 7-1 3.7-2.2 3.6-2.5-.2-.1-1.6-.7-4.1-1.2-5.5-1-2.7-.3-3.2 2.2-1.3zm-29.2.2c0 .6-21.3 5.6-23.1 5.5-1.6-.1 18.8-5.7 21.4-5.8.9-.1 1.7.1 1.7.3zm-7 8.1c-.7.8-1.8 1.5-2.5 1.5s-2.2 1.5-3.4 3.2c-2.5 4-2.7 3.3-.4-1.3 1.9-3.9 3-4.9 5.7-4.9 1.5 0 1.6.3.6 1.5zm9.1 1.4c2.1 1.7 2.3 2.7 2.4 11.4 0 8.9.2 9.8 3 13.9 1.7 2.3 4.6 5.1 6.4 6 2 1 4 3 4.7 4.8.7 1.6 1.8 3 2.4 3 .5 0 1 .5 1 1.1 0 1.7-9.3.2-14.6-2.3-4.9-2.2-9.1-6.6-10-10.4-1.1-4.5.2-11.2 3-14.8 2.8-3.8 3.3-5.1 1.4-4-.9.5-.9.2.1-.9 1.4-1.8 1.2-2.1-1.3-1.1-.9.3-1.6 1.4-1.6 2.5 0 1.7-.1 1.7-3 .1-4.1-2.3-4.4-6.4-.8-9.5 2.6-2.2 4-2.2 6.9.2zm-11.9 4.3c-.8.8-.9.4-.5-1.3.4-1.3.8-1.8 1.1-1 .2.7-.1 1.8-.6 2.3zm66.6 2.8c.5 5.2-1.5 5.9-2.8 1.1-.6-2.3-1.4-5-1.8-5.9-.6-1.6-.4-1.6 1.8-.1 1.6 1.1 2.6 2.8 2.8 4.9zm-66.7 3.9c0 .9.2 2.4.4 3.4.2 1.3-.1 1.7-1.2 1.3-.8-.3-2.8-.6-4.4-.6-2.7 0-2.9-.2-2.3-2.8 1-3.9 1-3.9 4.4-3.4 1.9.3 3 1 3.1 2.1zM6.5 44c.4.6-.7 1-2.7 1-2.5 0-2.9-.3-1.8-1 1.9-1.3 3.7-1.3 4.5 0zm111.5.9c0 1.1-.9 2.2-1.9 2.6-1.1.3-2.2 1.2-2.5 2-.3.8-1.9 2.1-3.6 3-3.4 1.7-6.2.9-7.9-2.4-.9-1.6-.5-1.9 4.2-2.4 2.8-.4 6.3-1.5 7.7-2.6 3.2-2.5 4-2.6 4-.2zM8 46.4c0 3.5-5.4 5.1-6.2 1.8-.4-1.3.2-1.8 2.9-1.9 1.8-.2 3.3-.1 3.3.1zM71 49c0 .5-1.1 1-2.5 1s-2.5-.5-2.5-1c0-.6 1.1-1 2.5-1s2.5.4 2.5 1zm2 2.9c0 1.9-4.2 3.7-6 2.6-2-1.2-.9-3.4 1.8-3.8 1.5-.2 3-.5 3.5-.6.4 0 .7.8.7 1.8zm53 2.7c2.1 2.1 2.2 2.7 1 3.5-5.4 3.5-7 3.4-7-.6 0-5.9 2.3-7 6-2.9zm-32.1-.2c1.5.8 3.3 2.2 4 3 .8.9 2.8 1.6 4.5 1.6 1.7 0 5.1 1 7.6 2.2 2.5 1.1 6.5 2.2 8.9 2.4 2.4.2 4.8.7 5.3 1.2 1.2 1.2-1.2 3.1-5 3.8-2.5.5-3.2.3-3.2-.9 0-1.9-5.6-6.1-7-5.2-.6.4-3.1.7-5.6.7-4.8 0-7.5-1.7-11.6-7.5-2.2-3.1-1.9-3.3 2.1-1.3zm46.6 3.9c3 4.3 1.1 9.6-3.5 9.9-4.9.2-5.5-.1-3.4-1.6 1.5-1.2 1.7-1.7.7-2.7-.9-.9-1.3-1-1.3-.1 0 .6-.7.9-1.5.6-1.1-.5-1.5.1-1.5 1.9 0 6.8-6.1 11.7-14.3 11.7-4 0-4.5-.3-4.9-2.5-.4-1.9-.1-2.5 1.3-2.5 1 0 2.1-.4 2.4-1 .3-.5 2.4-1.4 4.6-2 4.5-1.2 10.7-6.4 12.9-10.7.8-1.5 1.9-3.1 2.4-3.4 1.4-1.1 4.6.2 6.1 2.4zM74 61.4c0 1.2-.5.7-1.9-2.4-1.1-2.4-1.1-2.4.3-.6.9 1.1 1.6 2.4 1.6 3zm39.1 4.4c1.4 1.2 2 2.5 1.6 3.5-.5 1.4-1 1.5-3.3.5-2.2-1-2.8-1-3.2 0-.2.7-.8 1-1.2.7-.5-.3-.7-1.2-.4-1.9.3-.8.1-1.7-.5-2.1-2-1.2-1.1-2.5 1.8-2.5 1.6 0 3.9.8 5.2 1.8zm-8.8 1.2c.3 1.1.1 1.8-.4 1.4-.5-.3-.9-1.2-.9-2 0-2 .7-1.7 1.3.6zM80.8 78.6c2.1 8.2 2.1 8.8.5 10-2.9 2-4.9-.1-6.6-6.9-.9-3.5-1.9-7.1-2.3-8-.6-1.6 2.1-3.4 5.1-3.6.6-.1 2 3.8 3.3 8.5zM69 76.2c.6 2.4 1.7 6.4 2.4 9l1.4 4.8H70c-2.6 0-2.9-.4-4.9-8.5-1.1-4.6-2.1-8.7-2.1-9 0-.3 1.1-.5 2.5-.5 2 0 2.6.7 3.5 4.2zm66.1-1.5c-1.2 2-1.4 1.4-.5-1.2.4-.9.9-1.4 1.1-1.1.3.2 0 1.3-.6 2.3zM107 77.4c0 .8-.5 1.8-1.1 2.2-2 1.2-10.4.8-12.9-.7-2.4-1.3-2.1-1.4 5-2 4.1-.3 7.8-.6 8.3-.7.4-.1.7.4.7 1.2zm23 1.7c0 .5.5.7 1.1.4.6-.4.5.2-.2 1.3-.9 1.5-2.1 1.9-4.2 1.6-4.1-.5-4.3-1-1-2.8 3.4-1.8 4.3-1.9 4.3-.5zm30.5.9c-.3.5-1.2 1-1.9 1-.8 0-1.9.7-2.6 1.5-1.1 1.3-.7 1.4 3.3.9 6.1-.9 9.1 0 10.5 3.1 1.6 3.5 1.7 3.5-2.5 3.5-2 0-5.1.5-6.9 1.2-3.1 1.1-3.5 1-6.2-2-2.3-2.4-3.9-3.2-6.5-3.2-4.1 0-5.4-1.2-3.2-3 1.2-1 1.5-1 1.5 0 0 .6 1.4 0 3.1-1.4 2.3-2 4.2-2.6 7.5-2.6 2.8 0 4.3.4 3.9 1zm38.1 4.4 2.8 2.3-4.5.7c-4.7.7-7.7 2.1-6.8 3.1.4.3 2.8.1 5.5-.5 4.2-1 5.1-.9 7.3.8 1.5 1 2.7 3.1 2.9 4.5.3 2.7.2 2.7-5.7 2.7-7 0-7.6 1-4.1 6.8 2.7 4.4 2.5 5-1.2 6-4.2 1.1-5.6 3.4-3.9 6.5 1 1.9 1 3.4-.4 8.6-2.2 8.5-6.4 20.2-8.2 22.6-1.5 1.9-1.5 1.9-.9-.6.7-3-.5-4.4-4.6-5.4-1.7-.4-3-1.7-3.7-3.5-.7-2.2-2.1-3.3-6-4.7-4.5-1.6-5.1-2.1-5.1-4.6 0-2.8.1-2.9 4.3-2.2 9.4 1.6 12.3 4 9.5 8.4-1.6 2.6-.3 5.1 2.6 5.1 3.5 0 4-1.4 3.7-11-.1-6.8.3-10.2 2.4-17 1.4-4.7 2.9-11.7 3.2-15.6.5-6.7.4-7.2-1.8-8.8l-2.4-1.7 2.8-2.5c3.7-3.2 8.7-3.2 12.3 0zM182.3 86c-.3 1.1-1.2 2-2.1 2-1.3 0-1.2-.3.3-2 1-1.1 1.9-2 2.1-2 .1 0 0 .9-.3 2zm-77.4.6c5.6.2 6.7.6 9.7 3.5 1.8 1.8 4.6 5.6 6.1 8.5 2.6 5.1 2.7 5.3.9 7.2-2 2.3-6 3.5-8.6 2.7-3-1-5.9-6.5-5.3-10.3.3-1.9.1-3.2-.6-3.2-.6 0-.8.8-.5 1.7.4 1.4.1 1.3-1.4-.5-1.1-1.2-2.3-2.2-2.6-2.2-1 0-.7 6.8.4 9.2 1.8 3.8 7.9 7.2 13.3 7.4 5.7.2 7.7 1.7 7.7 5.4 0 3.4-1.4 4-8.8 4-9.6 0-15.7-4.7-18.2-14.2-.6-2.1-2.4-5.2-4-6.8-3.2-3.3-3.6-5.3-1.9-9.7 1.3-3.5 2.8-4.5 5.4-3.6 1.1.3 4.9.7 8.4.9zm41.9 4.4c5 3.1 4 5.4-2.8 6.1-6.3.7-9.2 2-11.3 5-1 1.4-2.3 1.9-4.1 1.7l-2.7-.3 2.8-5.5c4.3-8.5 11.3-11.1 18.1-7zm-64.1 3.2c-.3.8-.6.5-.6-.6-.1-1.1.2-1.7.5-1.3.3.3.4 1.2.1 1.9zm79.1 3c1.4 1.4 1.6 7.8.2 7.8-.5 0-1-.4-1-.9s-.9-1.1-2-1.4c-2.7-.7-2.9-6.7-.2-6.7 1 0 2.3.5 3 1.2zM86 99.1c0 .6-.4.7-1 .4-.5-.3-1-1.1-1-1.6 0-.6.5-.7 1-.4.6.3 1 1.1 1 1.6zm57.4 5.5c2.3 2.2 2 4.3-.4 3.7-1.1-.3-2 0-2 .6s.8 1.1 1.8 1.1c4.1 0 9.8 7.2 8.5 10.7-1.3 3.2-5.5.9-11.1-6.1-1.9-2.3-3.5-1.5-4.8 2.3-1.5 4.5-3.6 5.5-6.2 3-3-2.7-2.7-5.3.7-8.2 1.6-1.3 3.6-3.8 4.5-5.5 1.3-2.5 2.3-3.2 4.6-3.2 1.6 0 3.6.7 4.4 1.6zm-51.4 12c1.2 4.2 1.8 7.9 1.4 8.4-.5.4-2.1 1-3.5 1.4-2.6.6-2.7.3-4.8-7.1-1.1-4.3-1.7-8-1.3-8.4.6-.6 2.6-1.3 5.3-1.8.3 0 1.6 3.3 2.9 7.5zm65.6-3.9c-.3 2.1-.6 4.8-.6 6 0 1.4-.6 2.3-1.5 2.3-1.8 0-1.8-.4-.3-6.9 1.3-5.9 3.4-7 2.4-1.4zm-76.8 5.1c3 9.4 2.9 10.2-1.2 10.2-3.4 0-3.5-.1-4.6-5.8-.6-3.1-1.3-6.6-1.5-7.8-.6-2.6.2-3.4 3-3.4 1.7 0 2.5 1.2 4.3 6.8zm61.5 7.4c1.5.7 2.5 1.9 2.2 2.5-.8 2.2 2.9 1.4 5.4-1.2 2.6-2.8 3.5-3 8-1.4 2.3.8 3.1 1.7 3.1 3.5 0 2.6 0 2.6-15 4.4-4.7.6-17.9 2.5-29.5 4.1-17.9 2.6-21.9 2.9-26.9 2-5.4-1-9.7-3.3-8.5-4.6.3-.2 2.9-.2 5.8.2 4.1.5 5.5 1.1 6.1 2.7.9 2.1.9 2.1.9-.1.1-1.4.9-2.3 2.4-2.6 1.2-.2 0-.5-2.8-.6-2.7-.1-6.8-.5-9-1-3.7-.6-3.8-.7-1.4-1.4 3.7-.9 33.7-4.6 37.9-4.7 1.9 0 5.5.3 8 .6 3.7.5 5.1.2 7-1.5 3-2.4 2.9-2.4 6.3-.9zM78 132c0 .5-.2 1-.4 1-.3 0-.8-.5-1.1-1-.3-.6-.1-1 .4-1 .6 0 1.1.4 1.1 1zm73 3.7c0 5.3-2.2 19.9-3.2 21-1 1.3-5.8 1.9-5.8.7 0-1 4-20.8 4.5-22.2.7-1.9 4.5-1.5 4.5.5zm-72.7.8c-.3.9-.8 1.4-1 1.1-.3-.3-.2-.9.2-1.5.9-1.6 1.5-1.3.8.4zm57.5 1.1c4.1 1.1 2.6 3.4-2.3 3.4-2.5 0-5.4.5-6.4 1.2-1 .6-2.6.8-3.6.4-1.7-.6-1.6-.8.5-3.1 2.4-2.5 6.7-3.2 11.8-1.9zm25.7 1.9 3 1.3-4.7.1c-3.6.1-4.8-.3-4.8-1.4 0-1.8 2.5-1.9 6.5 0zM85 141.4c0 .3-.4.8-1 1.1-.5.3-1 .1-1-.4 0-.6.5-1.1 1-1.1.6 0 1 .2 1 .4zm-56.6 1.2c.9.3 1.6 1.7 1.6 2.9 0 6.4 15.6 11.8 43 15 16.9 2 22.9 2 23.7-.2.3-.9.1-4.3-.6-7.6-1-4.9-1-6.1.1-6.8 2.2-1.4 3-.6 5.4 6.1 2.5 6.9 5.2 10 8.9 10 1.2 0 2.8.7 3.6 1.6 2.2 2.7-.7 3.4-14.1 3.4-20.3 0-46-4.5-64.8-11.2-8.7-3.2-9.6-4-10.7-10.1-.8-3.9.1-4.6 3.9-3.1zm109.1.4c.3.5.1 1-.4 1-.6 0-1.1-.5-1.1-1 0-.6.2-1 .4-1 .3 0 .8.4 1.1 1zm30.4.6c1.3 1.2-1.3 1.2-7.5-.1l-6.9-1.4 7 .5c3.8.3 7.1.7 7.4 1zm-33.9 1.7c5.2 1.1 5.3 1.2 2 1.5-5.1.6-22-.9-22-1.8 0-2.2 9.3-2 20 .3zm21.3.2c-.3.9-.8 1.4-1 1.1-.3-.3-.2-.9.2-1.5.9-1.6 1.5-1.3.8.4zm-117.7 1.6c.3.6.1 1.6-.5 2.2-1.3 1.3-4.2 0-4.9-2.1-.5-1.5 4.4-1.6 5.4-.1zM182 157.5l2.2 7 12.5.1c9.4.2 12.8.5 13.4 1.5 1.2 2 6.9 17.9 7.6 21.1.5 2.5.3 2.8-2 2.8-5.1 0-12.7-2.1-12.7-3.6 0-.8 1-1.5 2.3-1.5 2.1-.2 2.1-.2.1-.6-1.9-.4-2.1-.8-1.4-3.9.7-3 .6-3.4-1.2-3.4-1.4 0-1.8-.5-1.4-1.5.3-.8 0-1.4-.6-1.2-.6.1-1.3-.4-1.5-1.1-.8-2.2 2.6-1.2 5.3 1.5 1.4 1.6 2.4 2.2 2.2 1.4-.7-2.6-5.5-5.4-7.5-4.6-1 .5-2.1.8-2.5.7-.4-.1-.4.6-.1 1.5.4 1.1.3 1.4-.5.9-1.6-.9-1.5.7 0 2.2 1.7 1.7.6 2.4-4.7 2.9-3 .4-4.5.2-4.5-.6 0-.6-.5-1.1-1.1-1.1-.5 0-.7.4-.4 1 1.6 2.6-1.5.5-6.9-4.8-3.4-3.1-5-4.5-3.6-2.9l2.4 2.7-2.1 1.5c-1.4 1-1.9 2.2-1.6 3.5.6 2.4-.5 2.5-6.9.6-8.5-2.6-9.1-3.4-11.2-12.9l-.6-2.7h25.1l1.9 4.2c3.1 7.1 2.2 3.7-1.9-7.4-3.4-9-3.9-11.4-3.1-14.8.2-1.1 2.9 5 5 11.5zm15-10c15.7 2.4 26.4 6.1 27.5 9.6.4 1.1 0 3.1-.9 4.4-1.3 1.9-2.5 2.5-5.5 2.5-3.3 0-3.9-.3-4.3-2.5-.3-1.4-.2-2.5.1-2.5.4 0 1.5-.6 2.6-1.3 1.6-1.3 1.5-1.4-1.2-1-2 .3-5-.5-9.2-2.6-3.4-1.8-9.3-3.9-13.1-4.7-3.9-.9-7-2-7-2.5 0-1.1-.2-1.2 11 .6zm-37.5 3.3c-1.3 1.3-8.5 1.1-8.5-.2 0-2.2.9-2.4 5.1-1.4 2.2.6 3.7 1.3 3.4 1.6zM86 153.1c4.7.6 8.8 1.6 9.2 2.2 1.2 1.9.9 3-.5 2.4-.8-.3-6.3-1.5-12.3-2.7-6-1.2-11.3-2.6-11.8-3.1-1-.9-.4-.9 15.4 1.2zm100.4-1.3c.3.5-.1.9-.9.9s-1.2-.4-.9-.9c.3-.4.7-.8.9-.8.2 0 .6.4.9.8zm12.1 2c-.3.3-1.1 0-1.8-.7-.9-1-.8-1.1.6-.5 1 .3 1.5.9 1.2 1.2zm-3.5.2c0 .5-.5 1-1.1 1-.5 0-.7-.5-.4-1 .3-.6.8-1 1.1-1 .2 0 .4.4.4 1zm-109.9 3.1c4.9 1.1 8.9 2.4 8.9 2.7 0 1.4-22.1-.2-34.7-2.4-6.6-1.2-3.1-2.4 6.8-2.4 6.8 0 13.1.7 19 2.1zm88.6-.9c3.8 1.1 4.9 2.3 4.1 4.5-.2.3-4.6.8-10 1.1-8.9.3-9.7.2-10.2-1.6-.4-1.1-1.4-2.4-2.4-2.8-4.4-1.9 12.3-3.1 18.5-1.2zm28.3-.8c0 .3-.4.8-1 1.1-.5.3-1 .1-1-.4 0-.6.5-1.1 1-1.1.6 0 1 .2 1 .4zm-72.1 3.1c2.8.9 5.1 2 5.1 2.5 0 .8-2.3 1.1-14.6 2.4-4.9.5-6.5-1.1-1.8-1.9 7.1-1.2 7-1.3-1.9-1.1-8.6.1-10.6-.6-10.7-3.8 0-1.3 17.8.1 23.9 1.9zm7.6-1.5c-.3.5-1.2 1-1.8 1-.7 0-.6-.4.3-1 1.9-1.2 2.3-1.2 1.5 0zm67.5 0c0 .5-.8 1-1.7 1-1.5 0-1.6-.2-.3-1 1.9-1.2 2-1.2 2 0zm-7.3.6c-.3.3-1.2.4-1.9.1-.8-.3-.5-.6.6-.6 1.1-.1 1.7.2 1.3.5zm-42.9 3.5c-.3.8-.7.3-1.1-1-.4-1.7-.3-2.1.5-1.3.5.5.8 1.6.6 2.3zM41 160c.5 0-.4 3.9-2.1 8.7-1.6 4.8-2.9 10.3-2.8 12.2.1 3.6.1 3.6 1-.8.5-2.5 2-7.9 3.4-12.1l2.5-7.6 7.3 1.8c6.6 1.7 26.1 4.6 43.3 6.5l7.1.8-4.1 11c-7.4 19.3-8.2 20.1-18 19.2-11.1-1-34.6-9-40.1-13.6-1.9-1.6-1.9-1.5-.4.9 1 1.5 4.3 3.6 8.1 5.2 9.2 3.9 27.3 8.9 34.1 9.6 8.5.7 10.2-1.3 17.9-21.8 4-10.7 4.9-12 8.1-12 2.1 0 2 1.1-2 15-6.5 22.8-10.4 28-19.7 26.6-5.8-1-45.2-14.2-50.1-16.9-5.1-2.8-6.3-6-4.8-13.1 1.8-8.6 7.3-20.8 9-20.2.8.3 1.8.6 2.3.6zm99.1 1c.6 0 .7-.5.3-1.2-.5-.7-.3-.8.5-.3.9.5.9 1.1.3 1.7-1.2 1.2-3.2.2-3.1-1.5 0-.9.2-.9.6 0 .2.7.9 1.3 1.4 1.3zm10.6.2c-.3.8-.6.5-.6-.6-.1-1.1.2-1.7.5-1.3.3.3.4 1.2.1 1.9zm4.4 9c1.6 6.1 5 8.9 13.6 11.4 2.9.8 5.3 2.1 5.3 2.8 0 1.1-1.6 1.1-8.2-.1-11-2-12.2-2.9-13.6-9.9-1.5-7.4-1.5-9.4.2-9.4.7 0 1.9 2.2 2.7 5.2zm45.8 7.1c.9 1.7 1 3.9.3 8.3-.9 5.3-1 5.5-1.1 1.8-.1-3.5-.5-4.2-3.3-5.7-3.2-1.5-3.2-1.6-.8-1.7 3 0 6.6-2 3.8-2-1 0-1.8-.7-1.8-1.5 0-2.2 1.5-1.8 2.9.8zm-20.5.2c1.1.8 1.7 1.7 1.5 2-.9.8-6.3-1.1-6.7-2.3-.5-1.7 2.9-1.4 5.2.3zm3.4 3.5c2.8 0 3.3.3 2.2 1-.8.6-3.5.7-5.9.4-3.1-.5-4.2-.3-3.7.5.4.6 1.7 1.1 2.9 1.2 2.2 0 2.2 0-.1 1-2.1.8-2.3 1.4-1.8 5.1.3 2.4.8 7.2 1.1 10.8.8 7.7 1.9 10 4.8 9.9h2.2l-2.2-1.1c-1.4-.7-2.3-2.3-2.6-4.7-.3-2-.9-5-1.2-6.7-.5-2.1-.2-3.4.9-4.3 1.1-.9 1.6-1 1.6-.2 0 .6.7 1.1 1.5 1.1 1.8 0 2-2 .3-2.1-.7 0-.4-.4.7-.9s1.4-.9.8-.9c-1.8-.1-1.6-3.1.2-3.1.9 0 1.5.9 1.5 2.5 0 1.4.4 2.5.9 2.5.4 0 .6-1.1.3-2.5-.2-1.5 0-2.5.7-2.5.6 0 1.1-.5 1.1-1 0-.6-1.4-1-3.2-1-4.6 0-3.1-.6 3.4-1.4l5.6-.6 1.1 3.3c.6 1.7 1 8 .8 13.8-.2 10.2-.3 10.6-2.2 10-1.1-.4-3.8-.4-6 0-4 .6-4 .6 1.5.9l5.5.4-4.7.3c-6.7.6-12.7-1.2-13.3-4-.6-2.9-3.5-25.6-3.5-27.9 0-1.5.4-1.6 2.6-.8 1.4.6 4.2 1 6.2 1zm9.2 2c-2 1.3-5 1.3-5 0 0-.6 1.5-1 3.3-1 2.4 0 2.8.3 1.7 1zm6 3c0 1.1-.2 2-.4 2s-.6-.9-.9-2c-.3-1.1-.1-2 .4-2s.9.9.9 2zm-17.6 1.6c2.2.9 2 3.1-.4 3.7-1.6.4-2 0-2-1.9 0-2.6.1-2.7 2.4-1.8zm18.3 9.6c-.2 1.3-.4.5-.4-1.7-.1-2.2.1-3.2.4-2.3.2 1 .2 2.8 0 4zm-1 7c-.3.8-.6.5-.6-.6-.1-1.1.2-1.7.5-1.3.3.3.4 1.2.1 1.9z"/><path d="M77 38c0 .5.5 1 1 1 .6 0 1-.5 1-1 0-.6-.4-1-1-1-.5 0-1 .4-1 1zm58 20.1c0 .5.5.7 1 .4.6-.3 1-.8 1-1.1 0-.2-.4-.4-1-.4-.5 0-1 .5-1 1.1zm4 2.9c0 .5.5 1 1.1 1 .5 0 .7-.5.4-1-.3-.6-.8-1-1.1-1-.2 0-.4.4-.4 1zm-6.2 68.7c.7.3 1.6.2 1.9-.1.4-.3-.2-.6-1.3-.5-1.1 0-1.4.3-.6.6zm-8.5 1c.9.2 2.5.2 3.5 0 .9-.3.1-.5-1.8-.5-1.9 0-2.7.2-1.7.5zm70.1 39.9c-1.4 2-2.4 2.5-4.6 2.2-1.5-.3-2.8-.3-2.8-.2 0 1.9 1.7 3.4 3.9 3.4s2.9-.6 3.6-3.2c.6-1.7 1.6-3.4 2.4-3.6.9-.3 1.1 0 .6.9-.6 1.1-.5 1.2.6.1 2.2-2 4.9-1.4 8.5 2.2 3.6 3.6 4.5 8 2.2 10.5-1.1 1.1-1 1.3.2.9.9-.3 1.6-1.9 1.8-4.2.3-3.2-.2-4.3-3.6-7.7-5-4.9-10.1-5.5-12.8-1.3zm-11.5 4.5c2.6 2.2 3.5 2 2.5-.5-.3-.9-1.6-1.6-2.8-1.6-2.1.1-2.1.1.3 2.1z"/><path d="M206.2 180c-.7 1.1-.8 2-.3 2 .9 0 2.4-3 1.8-3.6-.1-.2-.8.6-1.5 1.6zm-44.4-20.3c1.2.2 3 .2 4 0 .9-.3-.1-.5-2.3-.4-2.2 0-3 .2-1.7.4zm30 27c.7.3 1.6.2 1.9-.1.4-.3-.2-.6-1.3-.5-1.1 0-1.4.3-.6.6zm2.9 3c-.4.3-.7 1.1-.7 1.7 0 .6.5.5 1.2-.2.6-.6.9-1.4.7-1.7-.3-.3-.9-.2-1.2.2zm-5.9 5c.6.2 1.8.2 2.5 0 .6-.3.1-.5-1.3-.5-1.4 0-1.9.2-1.2.5zm-5.1 3.7c-2 5.2 2.8 12.9 7 11.1 1-.5 2.1-.8 2.4-.7.4.1.4-.8.1-2l-.5-2.2-.8 2.2c-.5 1.2-1.5 2.2-2.2 2.2-1.7 0-5.1-3.6-4.4-4.7.3-.5.2-2.4-.2-4.3-.6-2.8-.8-3.1-1.4-1.6zm10.5 1.6c0 1.4.2 1.9.5 1.2.2-.6.2-1.8 0-2.5-.3-.6-.5-.1-.5 1.3zM64.2 8.6c.2 1.1 2.5 2.2 7 3.3 7.7 2 7.8 1 .4-2.5-6-2.8-7.9-3-7.4-.8z"/></svg>